<svg width="19" height="16" viewBox="0 0 19 16" fill="none" xmlns="http://www.w3.org/2000/svg">
<path d="M9.50054 6.5C10.2962 6.5 11.0593 6.18393 11.6219 5.62132C12.1845 5.05871 12.5005 4.29565 12.5005 3.5C12.5005 2.70435 12.1845 1.94129 11.6219 1.37868C11.0593 0.816071 10.2962 0.5 9.50054 0.5C8.70489 0.5 7.94183 0.816071 7.37922 1.37868C6.81661 1.94129 6.50054 2.70435 6.50054 3.5C6.50054 4.29565 6.81661 5.05871 7.37922 5.62132C7.94183 6.18393 8.70489 6.5 9.50054 6.5ZM5.50054 5.5C5.50054 6.03043 5.28983 6.53914 4.91475 6.91421C4.53968 7.28929 4.03097 7.5 3.50054 7.5C2.97011 7.5 2.4614 7.28929 2.08633 6.91421C1.71125 6.53914 1.50054 6.03043 1.50054 5.5C1.50054 4.96957 1.71125 4.46086 2.08633 4.08579C2.4614 3.71071 2.97011 3.5 3.50054 3.5C4.03097 3.5 4.53968 3.71071 4.91475 4.08579C5.28983 4.46086 5.50054 4.96957 5.50054 5.5ZM0.990539 12.826C0.819825 12.729 0.691984 12.5711 0.632539 12.384C0.456345 11.8133 0.454497 11.2031 0.627233 10.6313C0.799968 10.0596 1.13942 9.55244 1.60213 9.1748C2.06484 8.79716 2.62974 8.56622 3.22448 8.51156C3.81923 8.45691 4.41675 8.58102 4.94054 8.868C3.86417 9.92577 3.19047 11.3259 3.03554 12.827C3.01254 13.049 3.02154 13.269 3.06054 13.481C2.3307 13.4179 1.62383 13.1942 0.990539 12.826ZM15.9405 13.48C16.6703 13.4172 17.3772 13.1939 18.0105 12.826C18.1809 12.7288 18.3083 12.571 18.3675 12.384C18.544 11.8133 18.5461 11.2028 18.3735 10.6309C18.2008 10.059 17.8614 9.55165 17.3986 9.17386C16.9359 8.79606 16.3709 8.56503 15.776 8.51036C15.1811 8.45569 14.5834 8.57987 14.0595 8.867C15.1369 9.92473 15.8113 11.3252 15.9665 12.827C15.9888 13.0451 15.9801 13.2653 15.9405 13.481V13.48ZM17.5005 5.5C17.5005 6.03043 17.2898 6.53914 16.9148 6.91421C16.5397 7.28929 16.031 7.5 15.5005 7.5C14.9701 7.5 14.4614 7.28929 14.0863 6.91421C13.7113 6.53914 13.5005 6.03043 13.5005 5.5C13.5005 4.96957 13.7113 4.46086 14.0863 4.08579C14.4614 3.71071 14.9701 3.5 15.5005 3.5C16.031 3.5 16.5397 3.71071 16.9148 4.08579C17.2898 4.46086 17.5005 4.96957 17.5005 5.5ZM4.80454 13.69C4.70592 13.6017 4.62946 13.4914 4.58134 13.368C4.53322 13.2447 4.51479 13.1118 4.52754 12.98C4.65474 11.7495 5.23358 10.6098 6.1522 9.78125C7.07081 8.9527 8.26396 8.4941 9.50104 8.4941C10.7381 8.4941 11.9313 8.9527 12.8499 9.78125C13.7685 10.6098 14.3473 11.7495 14.4745 12.98C14.4874 13.1118 14.469 13.2447 14.4209 13.3681C14.3727 13.4914 14.2962 13.6017 14.1975 13.69C12.9117 14.8569 11.2369 15.5023 9.50054 15.5C7.76448 15.5022 6.09003 14.8568 4.80454 13.69Z" fill="white"/>
</svg>
