<svg width="19" height="18" viewBox="0 0 19 18" fill="none" xmlns="http://www.w3.org/2000/svg">
<path d="M5.58333 5.79232H12.9167M5.58333 9.45898H11.0833M14.75 1.20898C15.4793 1.20898 16.1788 1.49872 16.6945 2.01444C17.2103 2.53017 17.5 3.22964 17.5 3.95898V11.2923C17.5 12.0217 17.2103 12.7211 16.6945 13.2369C16.1788 13.7526 15.4793 14.0423 14.75 14.0423H10.1667L5.58333 16.7923V14.0423H3.75C3.02065 14.0423 2.32118 13.7526 1.80546 13.2369C1.28973 12.7211 1 12.0217 1 11.2923V3.95898C1 3.22964 1.28973 2.53017 1.80546 2.01444C2.32118 1.49872 3.02065 1.20898 3.75 1.20898H14.75Z" stroke="white" stroke-width="1.5" stroke-linecap="round" stroke-linejoin="round"/>
</svg>
