<svg width="18" height="17" viewBox="0 0 18 17" fill="none" xmlns="http://www.w3.org/2000/svg">
<path fill-rule="evenodd" clip-rule="evenodd" d="M8.43283 16.8337H4.36116C2.32449 16.8337 0.666992 15.1762 0.666992 13.1378V3.86366C0.666992 1.82533 2.32449 0.166992 4.36116 0.166992H8.42366C10.462 0.166992 12.1203 1.82533 12.1203 3.86366V4.64033C12.1203 4.98533 11.8403 5.26533 11.4953 5.26533C11.1503 5.26533 10.8703 4.98533 10.8703 4.64033V3.86366C10.8703 2.51366 9.77283 1.41699 8.42366 1.41699H4.36116C3.01366 1.41699 1.91699 2.51366 1.91699 3.86366V13.1378C1.91699 14.487 3.01366 15.5837 4.36116 15.5837H8.43283C9.77616 15.5837 10.8703 14.4903 10.8703 13.147V12.3612C10.8703 12.0162 11.1503 11.7362 11.4953 11.7362C11.8403 11.7362 12.1203 12.0162 12.1203 12.3612V13.147C12.1203 15.1803 10.4653 16.8337 8.43283 16.8337" fill="white"/>
<mask id="mask0_563_1642" style="mask-type:luminance" maskUnits="userSpaceOnUse" x="6" y="7" width="12" height="3">
<path fill-rule="evenodd" clip-rule="evenodd" d="M6.49707 7.875H17.7812V9.125H6.49707V7.875Z" fill="white"/>
</mask>
<g mask="url(#mask0_563_1642)">
<path fill-rule="evenodd" clip-rule="evenodd" d="M17.1562 9.125H7.12207C6.77707 9.125 6.49707 8.845 6.49707 8.5C6.49707 8.155 6.77707 7.875 7.12207 7.875H17.1562C17.5012 7.875 17.7812 8.155 17.7812 8.5C17.7812 8.845 17.5012 9.125 17.1562 9.125" fill="white"/>
</g>
<mask id="mask1_563_1642" style="mask-type:luminance" maskUnits="userSpaceOnUse" x="14" y="5" width="4" height="7">
<path fill-rule="evenodd" clip-rule="evenodd" d="M14.0918 5.44629H17.7813V11.5552H14.0918V5.44629Z" fill="white"/>
</mask>
<g mask="url(#mask1_563_1642)">
<path fill-rule="evenodd" clip-rule="evenodd" d="M14.7166 11.5552C14.5566 11.5552 14.3958 11.4944 14.2741 11.3711C14.0308 11.1261 14.0316 10.7311 14.2758 10.4877L16.2708 8.50025L14.2758 6.51358C14.0316 6.27025 14.0299 5.87525 14.2741 5.63025C14.5174 5.38525 14.9124 5.38525 15.1574 5.62858L17.5974 8.05775C17.7158 8.17441 17.7816 8.33441 17.7816 8.50025C17.7816 8.66608 17.7158 8.82608 17.5974 8.94275L15.1574 11.3727C15.0358 11.4944 14.8758 11.5552 14.7166 11.5552" fill="white"/>
</g>
</svg>
