<svg width="84" height="48" viewBox="0 0 84 48" fill="none" xmlns="http://www.w3.org/2000/svg">
<path d="M19.104 19.768C19.104 21.0693 18.8053 22.264 18.208 23.352C17.6107 24.4187 16.6933 25.2827 15.456 25.944C14.2187 26.6053 12.6827 26.936 10.848 26.936H7.456V35H1.984V12.536H10.848C12.64 12.536 14.1547 12.8453 15.392 13.464C16.6293 14.0827 17.5573 14.936 18.176 16.024C18.7947 17.112 19.104 18.36 19.104 19.768ZM10.432 22.584C11.4773 22.584 12.256 22.3387 12.768 21.848C13.28 21.3573 13.536 20.664 13.536 19.768C13.536 18.872 13.28 18.1787 12.768 17.688C12.256 17.1973 11.4773 16.952 10.432 16.952H7.456V22.584H10.432ZM30.0808 35.256C28.3314 35.256 26.7528 34.8827 25.3448 34.136C23.9581 33.3893 22.8594 32.3227 22.0488 30.936C21.2594 29.5493 20.8648 27.928 20.8648 26.072C20.8648 24.2373 21.2701 22.6267 22.0807 21.24C22.8914 19.832 24.0008 18.7547 25.4088 18.008C26.8168 17.2613 28.3954 16.888 30.1448 16.888C31.8941 16.888 33.4728 17.2613 34.8808 18.008C36.2888 18.7547 37.3981 19.832 38.2088 21.24C39.0194 22.6267 39.4248 24.2373 39.4248 26.072C39.4248 27.9067 39.0088 29.528 38.1768 30.936C37.3661 32.3227 36.2461 33.3893 34.8168 34.136C33.4088 34.8827 31.8301 35.256 30.0808 35.256ZM30.0808 30.52C31.1261 30.52 32.0114 30.136 32.7368 29.368C33.4834 28.6 33.8568 27.5013 33.8568 26.072C33.8568 24.6427 33.4941 23.544 32.7688 22.776C32.0648 22.008 31.1901 21.624 30.1448 21.624C29.0781 21.624 28.1928 22.008 27.4888 22.776C26.7848 23.5227 26.4328 24.6213 26.4328 26.072C26.4328 27.5013 26.7741 28.6 27.4568 29.368C28.1608 30.136 29.0354 30.52 30.0808 30.52ZM53.2078 16.952C55.2984 16.952 56.9624 17.6347 58.1998 19C59.4584 20.344 60.0878 22.2 60.0878 24.568V35H54.6478V25.304C54.6478 24.1093 54.3384 23.1813 53.7198 22.52C53.1011 21.8587 52.2691 21.528 51.2238 21.528C50.1784 21.528 49.3464 21.8587 48.7278 22.52C48.1091 23.1813 47.7998 24.1093 47.7998 25.304V35H42.3278V17.144H47.7998V19.512C48.3544 18.7227 49.1011 18.104 50.0398 17.656C50.9784 17.1867 52.0344 16.952 53.2078 16.952ZM70.6743 16.888C71.9329 16.888 73.0316 17.144 73.9703 17.656C74.9303 18.168 75.6663 18.84 76.1783 19.672V17.144H81.6503V34.968C81.6503 36.6107 81.3196 38.0933 80.6583 39.416C80.0183 40.76 79.0263 41.8267 77.6823 42.616C76.3596 43.4053 74.7063 43.8 72.7223 43.8C70.0769 43.8 67.9329 43.1707 66.2903 41.912C64.6476 40.6747 63.7089 38.9893 63.4743 36.856H68.8823C69.0529 37.5387 69.4583 38.072 70.0983 38.456C70.7383 38.8613 71.5276 39.064 72.4663 39.064C73.5969 39.064 74.4929 38.7333 75.1543 38.072C75.8369 37.432 76.1783 36.3973 76.1783 34.968V32.44C75.6449 33.272 74.9089 33.9547 73.9703 34.488C73.0316 35 71.9329 35.256 70.6743 35.256C69.2023 35.256 67.8689 34.8827 66.6743 34.136C65.4796 33.368 64.5303 32.2907 63.8263 30.904C63.1436 29.496 62.8023 27.8747 62.8023 26.04C62.8023 24.2053 63.1436 22.5947 63.8263 21.208C64.5303 19.8213 65.4796 18.7547 66.6743 18.008C67.8689 17.2613 69.2023 16.888 70.6743 16.888ZM76.1783 26.072C76.1783 24.7067 75.7943 23.6293 75.0263 22.84C74.2796 22.0507 73.3623 21.656 72.2743 21.656C71.1863 21.656 70.2583 22.0507 69.4903 22.84C68.7436 23.608 68.3703 24.6747 68.3703 26.04C68.3703 27.4053 68.7436 28.4933 69.4903 29.304C70.2583 30.0933 71.1863 30.488 72.2743 30.488C73.3623 30.488 74.2796 30.0933 75.0263 29.304C75.7943 28.5147 76.1783 27.4373 76.1783 26.072Z" fill="white"/>
<circle cx="30" cy="26" r="8" fill="white"/>
</svg>
