<svg width="24" height="23" viewBox="0 0 24 23" fill="none" xmlns="http://www.w3.org/2000/svg">
<path d="M22.7143 0H1.28571C0.944722 0 0.617695 0.135459 0.376577 0.376577C0.135459 0.617695 0 0.944722 0 1.28571V16.7143C0 17.0553 0.135459 17.3823 0.376577 17.6234C0.617695 17.8645 0.944722 18 1.28571 18H5.14286V22.2857L11.4504 18H22.7143C23.0553 18 23.3823 17.8645 23.6234 17.6234C23.8645 17.3823 24 17.0553 24 16.7143V1.28571C24 0.944722 23.8645 0.617695 23.6234 0.376577C23.3823 0.135459 23.0553 0 22.7143 0ZM6.85714 10.7143C6.51809 10.7143 6.18665 10.6137 5.90474 10.4254C5.62282 10.237 5.4031 9.96927 5.27335 9.65603C5.1436 9.34278 5.10965 8.9981 5.1758 8.66556C5.24194 8.33302 5.40521 8.02757 5.64496 7.78782C5.88471 7.54807 6.19016 7.3848 6.5227 7.31865C6.85524 7.25251 7.19993 7.28646 7.51317 7.41621C7.82642 7.54596 8.09415 7.76568 8.28252 8.0476C8.47089 8.32951 8.57143 8.66095 8.57143 9C8.57143 9.45466 8.39082 9.89069 8.06933 10.2122C7.74783 10.5337 7.3118 10.7143 6.85714 10.7143ZM12 10.7143C11.6609 10.7143 11.3295 10.6137 11.0476 10.4254C10.7657 10.237 10.546 9.96927 10.4162 9.65603C10.2865 9.34278 10.2525 8.9981 10.3187 8.66556C10.3848 8.33302 10.5481 8.02757 10.7878 7.78782C11.0276 7.54807 11.333 7.3848 11.6656 7.31865C11.9981 7.25251 12.3428 7.28646 12.656 7.41621C12.9693 7.54596 13.237 7.76568 13.4254 8.0476C13.6137 8.32951 13.7143 8.66095 13.7143 9C13.7143 9.45466 13.5337 9.89069 13.2122 10.2122C12.8907 10.5337 12.4547 10.7143 12 10.7143ZM17.1429 10.7143C16.8038 10.7143 16.4724 10.6137 16.1905 10.4254C15.9085 10.237 15.6888 9.96927 15.5591 9.65603C15.4293 9.34278 15.3954 8.9981 15.4615 8.66556C15.5277 8.33302 15.6909 8.02757 15.9307 7.78782C16.1704 7.54807 16.4759 7.3848 16.8084 7.31865C17.141 7.25251 17.4856 7.28646 17.7989 7.41621C18.1121 7.54596 18.3799 7.76568 18.5682 8.0476C18.7566 8.32951 18.8571 8.66095 18.8571 9C18.8571 9.45466 18.6765 9.89069 18.355 10.2122C18.0335 10.5337 17.5975 10.7143 17.1429 10.7143Z" fill="white"/>
</svg>
