<svg width="17" height="18" viewBox="0 0 17 18" fill="none" xmlns="http://www.w3.org/2000/svg">
<mask id="mask0_563_1876" style="mask-type:luminance" maskUnits="userSpaceOnUse" x="0" y="0" width="17" height="18">
<path fill-rule="evenodd" clip-rule="evenodd" d="M0.666992 0.166992H16.7377V17.4345H0.666992V0.166992Z" fill="white"/>
</mask>
<g mask="url(#mask0_563_1876)">
<path fill-rule="evenodd" clip-rule="evenodd" d="M5.00226 13.0337C5.19309 13.0337 5.38393 13.0578 5.57059 13.1078C6.13392 13.2595 6.62309 13.6362 6.91309 14.142C7.10143 14.4595 7.20559 14.8303 7.20893 15.2087C7.20893 15.7503 7.64393 16.1845 8.17893 16.1845H9.22309C9.75559 16.1845 10.1906 15.7528 10.1931 15.2203C10.1898 14.632 10.4198 14.0728 10.8406 13.652C11.2556 13.237 11.8356 12.9878 12.4156 13.0045C12.7956 13.0137 13.1614 13.1162 13.4839 13.2995C13.9481 13.5653 14.5406 13.407 14.8089 12.9487L15.3623 12.0262C15.4856 11.8137 15.5214 11.547 15.4556 11.3012C15.3906 11.0553 15.2273 10.842 15.0073 10.7162C14.4923 10.4195 14.1248 9.94116 13.9723 9.36783C13.8214 8.80533 13.9039 8.19116 14.1981 7.68533C14.3898 7.35199 14.6706 7.07116 15.0073 6.87783C15.4589 6.61366 15.6173 6.02283 15.3548 5.56283C15.3439 5.54449 15.3339 5.52533 15.3256 5.50533L14.8373 4.65866C14.5714 4.19616 13.9798 4.03699 13.5156 4.30116C13.0139 4.59783 12.4173 4.68283 11.8439 4.53199C11.2714 4.38366 10.7914 4.02116 10.4923 3.50949C10.3006 3.18949 10.1964 2.81699 10.1931 2.43783C10.2006 2.15283 10.1006 1.89699 9.91892 1.70949C9.73809 1.52283 9.48392 1.41699 9.22309 1.41699H8.17893C7.92059 1.41699 7.67893 1.51783 7.49643 1.69949C7.31476 1.88199 7.21559 2.12449 7.21726 2.38283C7.19976 3.60116 6.20393 4.58199 4.99809 4.58199C4.61143 4.57783 4.23893 4.47366 3.91559 4.28033C3.46143 4.02199 2.86809 4.18116 2.60226 4.64366L2.03809 5.57116C1.77976 6.01949 1.93809 6.61199 2.39809 6.87949C3.08059 7.27449 3.50643 8.01116 3.50643 8.80116C3.50643 9.59116 3.08059 10.327 2.39643 10.7228C1.93893 10.9878 1.78059 11.577 2.04559 12.0353L2.57143 12.942C2.70143 13.1762 2.91393 13.3453 3.15976 13.4145C3.40476 13.4828 3.67476 13.4537 3.89976 13.3287C4.23059 13.1345 4.61559 13.0337 5.00226 13.0337M9.22309 17.4345H8.17893C6.95476 17.4345 5.95893 16.4395 5.95893 15.2153C5.95726 15.0645 5.91393 14.9078 5.83309 14.772C5.70226 14.5437 5.49059 14.3803 5.24643 14.3153C5.00393 14.2503 4.73809 14.2862 4.51976 14.4128C3.99643 14.7045 3.38059 14.7753 2.81726 14.617C2.25476 14.4578 1.76893 14.0712 1.48393 13.5587L0.963092 12.6612C0.353925 11.6045 0.716425 10.2503 1.77143 9.64033C2.07059 9.46783 2.25643 9.14616 2.25643 8.80116C2.25643 8.45616 2.07059 8.13366 1.77143 7.96116C0.715592 7.34783 0.353925 5.99033 0.962259 4.93366L1.52726 4.00616C2.12809 2.96116 3.48643 2.59283 4.54559 3.20116C4.68976 3.28699 4.84643 3.33033 5.00559 3.33199C5.52476 3.33199 5.95893 2.90366 5.96726 2.37699C5.96393 1.79616 6.19309 1.23866 6.61059 0.817826C7.02976 0.397826 7.58643 0.166992 8.17893 0.166992H9.22309C9.81976 0.166992 10.3998 0.411992 10.8156 0.837826C11.2306 1.26616 11.4598 1.85366 11.4423 2.44949C11.4439 2.58366 11.4881 2.73866 11.5681 2.87449C11.7006 3.09949 11.9098 3.25783 12.1581 3.32283C12.4064 3.38449 12.6664 3.35116 12.8873 3.22033C13.9539 2.61116 15.3114 2.97616 15.9206 4.03449L16.4398 4.93366C16.4531 4.95783 16.4648 4.98116 16.4748 5.00533C17.0264 6.04783 16.6581 7.36033 15.6331 7.95949C15.4839 8.04533 15.3631 8.16533 15.2798 8.31033C15.1506 8.53449 15.1148 8.80116 15.1798 9.04616C15.2464 9.29616 15.4056 9.50366 15.6298 9.63199C16.1356 9.92283 16.5131 10.4128 16.6639 10.9787C16.8148 11.5437 16.7323 12.157 16.4381 12.6628L15.8848 13.5845C15.2756 14.6312 13.9181 14.9937 12.8623 14.3837C12.7214 14.3028 12.5589 14.2587 12.3973 14.2545H12.3923C12.1514 14.2545 11.9039 14.357 11.7239 14.5362C11.5414 14.7187 11.4414 14.962 11.4431 15.2203C11.4373 16.4445 10.4414 17.4345 9.22309 17.4345" fill="white"/>
</g>
<path fill-rule="evenodd" clip-rule="evenodd" d="M8.70448 7.22852C7.83781 7.22852 7.13281 7.93435 7.13281 8.80102C7.13281 9.66768 7.83781 10.3718 8.70448 10.3718C9.57115 10.3718 10.2761 9.66768 10.2761 8.80102C10.2761 7.93435 9.57115 7.22852 8.70448 7.22852M8.70448 11.6218C7.14865 11.6218 5.88281 10.3568 5.88281 8.80102C5.88281 7.24518 7.14865 5.97852 8.70448 5.97852C10.2603 5.97852 11.5261 7.24518 11.5261 8.80102C11.5261 10.3568 10.2603 11.6218 8.70448 11.6218" fill="white"/>
</svg>
